<svg width="16" height="19" viewBox="0 0 16 19" fill="none" xmlns="http://www.w3.org/2000/svg">
<path d="M4.875 14.3757H6.54167V7.29232H4.04167V8.95898H4.875V14.3757ZM9.04167 14.3757H10.2917C10.75 14.3757 11.1424 14.2125 11.4688 13.8861C11.7951 13.5597 11.9583 13.1673 11.9583 12.709V8.95898C11.9583 8.50065 11.7951 8.10829 11.4688 7.7819C11.1424 7.45551 10.75 7.29232 10.2917 7.29232H9.04167C8.58333 7.29232 8.19097 7.45551 7.86458 7.7819C7.53819 8.10829 7.375 8.50065 7.375 8.95898V12.709C7.375 13.1673 7.53819 13.5597 7.86458 13.8861C8.19097 14.2125 8.58333 14.3757 9.04167 14.3757ZM9.04167 12.709V8.95898H10.2917V12.709H9.04167ZM5.5 2.50065V0.833984H10.5V2.50065H5.5ZM8 18.334C6.97222 18.334 6.00347 18.1361 5.09375 17.7402C4.18403 17.3444 3.38889 16.8062 2.70833 16.1257C2.02778 15.4451 1.48958 14.65 1.09375 13.7402C0.697917 12.8305 0.5 11.8618 0.5 10.834C0.5 9.80621 0.697917 8.83746 1.09375 7.92773C1.48958 7.01801 2.02778 6.22287 2.70833 5.54232C3.38889 4.86176 4.18403 4.32357 5.09375 3.92773C6.00347 3.5319 6.97222 3.33398 8 3.33398C8.86111 3.33398 9.6875 3.47287 10.4792 3.75065C11.2708 4.02843 12.0139 4.43121 12.7083 4.95898L13.875 3.79232L15.0417 4.95898L13.875 6.12565C14.4028 6.8201 14.8056 7.56315 15.0833 8.35482C15.3611 9.14648 15.5 9.97287 15.5 10.834C15.5 11.8618 15.3021 12.8305 14.9063 13.7402C14.5104 14.65 13.9722 15.4451 13.2917 16.1257C12.6111 16.8062 11.816 17.3444 10.9063 17.7402C9.99653 18.1361 9.02778 18.334 8 18.334ZM8 16.6673C9.61111 16.6673 10.9861 16.0979 12.125 14.959C13.2639 13.8201 13.8333 12.4451 13.8333 10.834C13.8333 9.22287 13.2639 7.84787 12.125 6.70898C10.9861 5.5701 9.61111 5.00065 8 5.00065C6.38889 5.00065 5.01389 5.5701 3.875 6.70898C2.73611 7.84787 2.16667 9.22287 2.16667 10.834C2.16667 12.4451 2.73611 13.8201 3.875 14.959C5.01389 16.0979 6.38889 16.6673 8 16.6673Z" fill="white"/>
</svg>
