<svg width="12" height="12" viewBox="0 0 12 12" fill="white" xmlns="http://www.w3.org/2000/svg">
<path d="M5.99935 11.3337C4.51046 11.3337 3.24935 10.817 2.21602 9.78366C1.18268 8.75033 0.666016 7.48921 0.666016 6.00033C0.666016 4.51144 1.18268 3.25033 2.21602 2.21699C3.24935 1.18366 4.51046 0.666992 5.99935 0.666992C6.76602 0.666992 7.49935 0.825326 8.19935 1.14199C8.89935 1.45866 9.49935 1.91144 9.99935 2.50033V0.666992H11.3327V5.33366H6.66602V4.00033H9.46601C9.11046 3.3781 8.62435 2.88921 8.00768 2.53366C7.39102 2.1781 6.72157 2.00033 5.99935 2.00033C4.88824 2.00033 3.94379 2.38921 3.16602 3.16699C2.38824 3.94477 1.99935 4.88921 1.99935 6.00033C1.99935 7.11144 2.38824 8.05588 3.16602 8.83366C3.94379 9.61144 4.88824 10.0003 5.99935 10.0003C6.8549 10.0003 7.62713 9.75588 8.31602 9.26699C9.0049 8.7781 9.48824 8.13366 9.76602 7.33366H11.166C10.8549 8.51144 10.2216 9.47255 9.26602 10.217C8.31046 10.9614 7.22157 11.3337 5.99935 11.3337Z" />
</svg>
