<svg width="31" height="22" viewBox="0 0 31 22" fill="#1F94A3" xmlns="http://www.w3.org/2000/svg">
<path d="M0.833344 21.6666V16.3333C0.833344 15.5777 1.09445 14.9444 1.61668 14.4333C2.1389 13.9221 2.76668 13.6666 3.50001 13.6666H7.86668C8.31112 13.6666 8.73334 13.7777 9.13334 13.9999C9.53334 14.2221 9.85557 14.5221 10.1 14.8999C10.7445 15.7666 11.5389 16.4444 12.4833 16.9333C13.4278 17.4221 14.4333 17.6666 15.5 17.6666C16.5889 17.6666 17.6056 17.4221 18.55 16.9333C19.4945 16.4444 20.2778 15.7666 20.9 14.8999C21.1889 14.5221 21.5278 14.2221 21.9167 13.9999C22.3056 13.7777 22.7111 13.6666 23.1333 13.6666H27.5C28.2556 13.6666 28.8889 13.9221 29.4 14.4333C29.9111 14.9444 30.1667 15.5777 30.1667 16.3333V21.6666H20.8333V18.6333C20.0556 19.1888 19.2167 19.611 18.3167 19.8999C17.4167 20.1888 16.4778 20.3333 15.5 20.3333C14.5445 20.3333 13.6111 20.1833 12.7 19.8833C11.7889 19.5833 10.9445 19.1555 10.1667 18.5999V21.6666H0.833344ZM15.5 16.3333C14.6556 16.3333 13.8556 16.1388 13.1 15.7499C12.3445 15.361 11.7111 14.8221 11.2 14.1333C10.8222 13.5777 10.35 13.1388 9.78334 12.8166C9.21668 12.4944 8.60001 12.3333 7.93334 12.3333C8.42223 11.511 9.45557 10.861 11.0333 10.3833C12.6111 9.90547 14.1 9.66658 15.5 9.66658C16.9 9.66658 18.3889 9.90547 19.9667 10.3833C21.5445 10.861 22.5778 11.511 23.0667 12.3333C22.4222 12.3333 21.8111 12.4944 21.2333 12.8166C20.6556 13.1388 20.1778 13.5777 19.8 14.1333C19.3111 14.8444 18.6889 15.3888 17.9333 15.7666C17.1778 16.1444 16.3667 16.3333 15.5 16.3333ZM4.83334 12.3333C3.72223 12.3333 2.77779 11.9444 2.00001 11.1666C1.22223 10.3888 0.833344 9.44436 0.833344 8.33325C0.833344 7.19992 1.22223 6.24992 2.00001 5.48325C2.77779 4.71659 3.72223 4.33325 4.83334 4.33325C5.96668 4.33325 6.91668 4.71659 7.68334 5.48325C8.45001 6.24992 8.83334 7.19992 8.83334 8.33325C8.83334 9.44436 8.45001 10.3888 7.68334 11.1666C6.91668 11.9444 5.96668 12.3333 4.83334 12.3333ZM26.1667 12.3333C25.0556 12.3333 24.1111 11.9444 23.3333 11.1666C22.5556 10.3888 22.1667 9.44436 22.1667 8.33325C22.1667 7.19992 22.5556 6.24992 23.3333 5.48325C24.1111 4.71659 25.0556 4.33325 26.1667 4.33325C27.3 4.33325 28.25 4.71659 29.0167 5.48325C29.7833 6.24992 30.1667 7.19992 30.1667 8.33325C30.1667 9.44436 29.7833 10.3888 29.0167 11.1666C28.25 11.9444 27.3 12.3333 26.1667 12.3333ZM15.5 8.33325C14.3889 8.33325 13.4445 7.94436 12.6667 7.16658C11.8889 6.38881 11.5 5.44436 11.5 4.33325C11.5 3.19992 11.8889 2.24992 12.6667 1.48325C13.4445 0.716585 14.3889 0.333252 15.5 0.333252C16.6333 0.333252 17.5833 0.716585 18.35 1.48325C19.1167 2.24992 19.5 3.19992 19.5 4.33325C19.5 5.44436 19.1167 6.38881 18.35 7.16658C17.5833 7.94436 16.6333 8.33325 15.5 8.33325Z" />
</svg>
